<mxfile host="app.diagrams.net" modified="2024-02-12T22:56:05.783Z" agent="Mozilla/5.0 (Windows NT 10.0; Win64; x64; rv:122.0) Gecko/20100101 Firefox/122.0" etag="X6pwUIJ131kwlYXUVsv_" version="23.1.3" type="github">
  <diagram name="Page-1" id="z3uIDyGecTTQ6y1Qb607">
    <mxGraphModel dx="652" dy="360" grid="1" gridSize="10" guides="1" tooltips="1" connect="1" arrows="1" fold="1" page="1" pageScale="1" pageWidth="827" pageHeight="1169" math="0" shadow="0">
      <root>
        <mxCell id="0" />
        <mxCell id="1" parent="0" />
        <mxCell id="cnTBpwzU_P2CvcH9niUu-26" value="" style="rounded=0;whiteSpace=wrap;html=1;imageAspect=1;sketch=1;curveFitting=1;jiggle=2;" vertex="1" parent="1">
          <mxGeometry x="650" y="70" width="220" height="412.5" as="geometry" />
        </mxCell>
        <mxCell id="cnTBpwzU_P2CvcH9niUu-9" style="edgeStyle=orthogonalEdgeStyle;rounded=0;orthogonalLoop=1;jettySize=auto;html=1;" edge="1" parent="1" source="cnTBpwzU_P2CvcH9niUu-4">
          <mxGeometry relative="1" as="geometry">
            <mxPoint x="414" y="270" as="targetPoint" />
          </mxGeometry>
        </mxCell>
        <mxCell id="cnTBpwzU_P2CvcH9niUu-4" value="&lt;div&gt;User&lt;/div&gt;" style="shape=umlActor;verticalLabelPosition=bottom;verticalAlign=top;html=1;" vertex="1" parent="1">
          <mxGeometry x="399" y="130" width="30" height="60" as="geometry" />
        </mxCell>
        <mxCell id="cnTBpwzU_P2CvcH9niUu-6" value="Quero escolher um filme ou série com filtros" style="ellipse;whiteSpace=wrap;html=1;fontFamily=Indie Flower;fontSource=https%3A%2F%2Ffonts.googleapis.com%2Fcss%3Ffamily%3DIndie%2BFlower;sketch=1;curveFitting=1;jiggle=2;" vertex="1" parent="1">
          <mxGeometry x="290" y="85" width="120" height="60" as="geometry" />
        </mxCell>
        <mxCell id="cnTBpwzU_P2CvcH9niUu-12" style="edgeStyle=orthogonalEdgeStyle;rounded=0;orthogonalLoop=1;jettySize=auto;html=1;entryX=0;entryY=0.5;entryDx=0;entryDy=0;" edge="1" parent="1" source="cnTBpwzU_P2CvcH9niUu-10" target="cnTBpwzU_P2CvcH9niUu-11">
          <mxGeometry relative="1" as="geometry">
            <Array as="points">
              <mxPoint x="540" y="190" />
            </Array>
          </mxGeometry>
        </mxCell>
        <mxCell id="cnTBpwzU_P2CvcH9niUu-29" style="edgeStyle=orthogonalEdgeStyle;rounded=0;orthogonalLoop=1;jettySize=auto;html=1;entryX=0.5;entryY=0;entryDx=0;entryDy=0;fontFamily=Indie Flower;fontSource=https%3A%2F%2Ffonts.googleapis.com%2Fcss%3Ffamily%3DIndie%2BFlower;fontSize=12;fontColor=default;" edge="1" parent="1" source="cnTBpwzU_P2CvcH9niUu-10" target="cnTBpwzU_P2CvcH9niUu-28">
          <mxGeometry relative="1" as="geometry" />
        </mxCell>
        <mxCell id="cnTBpwzU_P2CvcH9niUu-36" style="edgeStyle=orthogonalEdgeStyle;rounded=0;orthogonalLoop=1;jettySize=auto;html=1;exitX=0;exitY=0.5;exitDx=0;exitDy=0;fontFamily=Indie Flower;fontSource=https%3A%2F%2Ffonts.googleapis.com%2Fcss%3Ffamily%3DIndie%2BFlower;fontSize=12;fontColor=default;endArrow=none;endFill=0;" edge="1" parent="1" source="cnTBpwzU_P2CvcH9niUu-10" target="cnTBpwzU_P2CvcH9niUu-39">
          <mxGeometry relative="1" as="geometry">
            <mxPoint x="437.60000000000014" y="292.5" as="targetPoint" />
          </mxGeometry>
        </mxCell>
        <mxCell id="cnTBpwzU_P2CvcH9niUu-10" value="Mostra as opções de Filtro encadeadas" style="rounded=0;whiteSpace=wrap;html=1;sketch=1;curveFitting=1;jiggle=2;fillColor=none;fontFamily=Indie Flower;fontSource=https%3A%2F%2Ffonts.googleapis.com%2Fcss%3Ffamily%3DIndie%2BFlower;" vertex="1" parent="1">
          <mxGeometry x="480" y="256" width="120" height="73" as="geometry" />
        </mxCell>
        <mxCell id="cnTBpwzU_P2CvcH9niUu-14" style="edgeStyle=orthogonalEdgeStyle;rounded=0;orthogonalLoop=1;jettySize=auto;html=1;" edge="1" parent="1" source="cnTBpwzU_P2CvcH9niUu-11" target="cnTBpwzU_P2CvcH9niUu-13">
          <mxGeometry relative="1" as="geometry" />
        </mxCell>
        <mxCell id="cnTBpwzU_P2CvcH9niUu-11" value="&lt;div&gt;Filme ou série?&lt;/div&gt;&lt;div&gt;default (ambos)&lt;br&gt;&lt;/div&gt;" style="rounded=1;whiteSpace=wrap;html=1;glass=0;sketch=1;curveFitting=1;jiggle=2;fillColor=none;fontFamily=Indie Flower;fontSource=https%3A%2F%2Ffonts.googleapis.com%2Fcss%3Ffamily%3DIndie%2BFlower;" vertex="1" parent="1">
          <mxGeometry x="700" y="160" width="120" height="60" as="geometry" />
        </mxCell>
        <mxCell id="cnTBpwzU_P2CvcH9niUu-18" style="edgeStyle=orthogonalEdgeStyle;rounded=0;orthogonalLoop=1;jettySize=auto;html=1;" edge="1" parent="1" source="cnTBpwzU_P2CvcH9niUu-13" target="cnTBpwzU_P2CvcH9niUu-16">
          <mxGeometry relative="1" as="geometry" />
        </mxCell>
        <mxCell id="cnTBpwzU_P2CvcH9niUu-13" value="&lt;div&gt;Que gênero?&lt;/div&gt;&lt;div&gt;Listagem de gêneros&lt;/div&gt;&lt;div&gt;default(todos)&lt;br&gt;&lt;/div&gt;" style="rounded=0;whiteSpace=wrap;html=1;sketch=1;curveFitting=1;jiggle=2;fillColor=none;fontFamily=Indie Flower;fontSource=https%3A%2F%2Ffonts.googleapis.com%2Fcss%3Ffamily%3DIndie%2BFlower;" vertex="1" parent="1">
          <mxGeometry x="690" y="280" width="140" height="60" as="geometry" />
        </mxCell>
        <mxCell id="cnTBpwzU_P2CvcH9niUu-16" value="&lt;div&gt;A partir de quando?&lt;/div&gt;&lt;div&gt;default(2016)&lt;br&gt;&lt;/div&gt;" style="rounded=0;whiteSpace=wrap;html=1;sketch=1;curveFitting=1;jiggle=2;fillColor=none;fontFamily=Indie Flower;fontSource=https%3A%2F%2Ffonts.googleapis.com%2Fcss%3Ffamily%3DIndie%2BFlower;" vertex="1" parent="1">
          <mxGeometry x="690" y="400" width="140" height="60" as="geometry" />
        </mxCell>
        <mxCell id="cnTBpwzU_P2CvcH9niUu-25" value="Builda o objeto para mandar para API" style="text;html=1;align=center;verticalAlign=middle;whiteSpace=wrap;rounded=0;glass=0;shadow=0;fillColor=none;fontFamily=Indie Flower;fontSource=https%3A%2F%2Ffonts.googleapis.com%2Fcss%3Ffamily%3DIndie%2BFlower;fontSize=14;fontStyle=3" vertex="1" parent="1">
          <mxGeometry x="700" y="100" width="120" height="30" as="geometry" />
        </mxCell>
        <mxCell id="cnTBpwzU_P2CvcH9niUu-33" style="edgeStyle=orthogonalEdgeStyle;rounded=0;orthogonalLoop=1;jettySize=auto;html=1;fontFamily=Indie Flower;fontSource=https%3A%2F%2Ffonts.googleapis.com%2Fcss%3Ffamily%3DIndie%2BFlower;fontSize=12;fontColor=default;dashed=1;" edge="1" parent="1" source="cnTBpwzU_P2CvcH9niUu-28" target="cnTBpwzU_P2CvcH9niUu-31">
          <mxGeometry relative="1" as="geometry">
            <Array as="points">
              <mxPoint x="380" y="440" />
              <mxPoint x="380" y="440" />
            </Array>
          </mxGeometry>
        </mxCell>
        <mxCell id="cnTBpwzU_P2CvcH9niUu-38" style="edgeStyle=orthogonalEdgeStyle;rounded=0;orthogonalLoop=1;jettySize=auto;html=1;entryX=0.5;entryY=0;entryDx=0;entryDy=0;fontFamily=Indie Flower;fontSource=https%3A%2F%2Ffonts.googleapis.com%2Fcss%3Ffamily%3DIndie%2BFlower;fontSize=12;fontColor=default;" edge="1" parent="1" source="cnTBpwzU_P2CvcH9niUu-28" target="cnTBpwzU_P2CvcH9niUu-37">
          <mxGeometry relative="1" as="geometry" />
        </mxCell>
        <mxCell id="cnTBpwzU_P2CvcH9niUu-28" value="Envia request para API de Filmes" style="rounded=0;whiteSpace=wrap;html=1;sketch=1;jiggle=2;curveFitting=1;strokeColor=default;align=center;verticalAlign=middle;fontFamily=Indie Flower;fontSource=https%3A%2F%2Ffonts.googleapis.com%2Fcss%3Ffamily%3DIndie%2BFlower;fontSize=12;fontColor=default;fillColor=none;" vertex="1" parent="1">
          <mxGeometry x="480" y="400" width="120" height="60" as="geometry" />
        </mxCell>
        <mxCell id="cnTBpwzU_P2CvcH9niUu-34" style="edgeStyle=orthogonalEdgeStyle;rounded=0;orthogonalLoop=1;jettySize=auto;html=1;entryX=0;entryY=0.5;entryDx=0;entryDy=0;fontFamily=Indie Flower;fontSource=https%3A%2F%2Ffonts.googleapis.com%2Fcss%3Ffamily%3DIndie%2BFlower;fontSize=12;fontColor=default;curved=0;dashed=1;" edge="1" parent="1" source="cnTBpwzU_P2CvcH9niUu-31" target="cnTBpwzU_P2CvcH9niUu-28">
          <mxGeometry relative="1" as="geometry">
            <Array as="points">
              <mxPoint x="360" y="430" />
              <mxPoint x="360" y="430" />
            </Array>
          </mxGeometry>
        </mxCell>
        <mxCell id="cnTBpwzU_P2CvcH9niUu-31" value="" style="dashed=0;outlineConnect=0;html=1;align=center;labelPosition=center;verticalLabelPosition=bottom;verticalAlign=top;shape=mxgraph.weblogos.github;rounded=0;strokeColor=default;fontFamily=Indie Flower;fontSource=https%3A%2F%2Ffonts.googleapis.com%2Fcss%3Ffamily%3DIndie%2BFlower;fontSize=12;fontColor=default;fillColor=none;" vertex="1" parent="1">
          <mxGeometry x="242.4" y="405" width="47.6" height="50" as="geometry" />
        </mxCell>
        <mxCell id="cnTBpwzU_P2CvcH9niUu-37" value="Formata o response" style="rounded=0;whiteSpace=wrap;html=1;sketch=1;jiggle=2;curveFitting=1;strokeColor=default;align=center;verticalAlign=middle;fontFamily=Indie Flower;fontSource=https%3A%2F%2Ffonts.googleapis.com%2Fcss%3Ffamily%3DIndie%2BFlower;fontSize=12;fontColor=default;fillColor=none;" vertex="1" parent="1">
          <mxGeometry x="480" y="525" width="120" height="60" as="geometry" />
        </mxCell>
        <mxCell id="cnTBpwzU_P2CvcH9niUu-39" value="" style="shape=image;html=1;verticalAlign=top;verticalLabelPosition=bottom;labelBackgroundColor=#ffffff;imageAspect=0;aspect=fixed;image=https://cdn1.iconfinder.com/data/icons/unicons-line-vol-3/24/discord-128.png;rounded=0;sketch=1;jiggle=2;curveFitting=1;strokeColor=default;align=center;fontFamily=Indie Flower;fontSource=https%3A%2F%2Ffonts.googleapis.com%2Fcss%3Ffamily%3DIndie%2BFlower;fontSize=12;fontColor=default;fillColor=none;" vertex="1" parent="1">
          <mxGeometry x="390" y="268.5" width="48" height="48" as="geometry" />
        </mxCell>
        <mxCell id="cnTBpwzU_P2CvcH9niUu-41" value="Com capa&amp;nbsp; do filme" style="rounded=0;whiteSpace=wrap;html=1;sketch=1;jiggle=2;curveFitting=1;strokeColor=default;align=center;verticalAlign=middle;fontFamily=Indie Flower;fontSource=https%3A%2F%2Ffonts.googleapis.com%2Fcss%3Ffamily%3DIndie%2BFlower;fontSize=12;fontColor=default;fillColor=none;" vertex="1" parent="1">
          <mxGeometry x="600" y="520" width="54" height="70" as="geometry" />
        </mxCell>
      </root>
    </mxGraphModel>
  </diagram>
</mxfile>
